<svg width="28" height="28" viewBox="0 0 28 28" fill="none" xmlns="http://www.w3.org/2000/svg">
<g clip-path="url(#clip0_97_90)">
<path d="M5.7505 19.1082C3.63884 19.7417 2.33334 20.6167 2.33334 21.5832C2.33334 23.5164 7.5565 25.0832 14 25.0832C20.4435 25.0832 25.6667 23.5164 25.6667 21.5832C25.6667 20.6167 24.3606 19.7417 22.2495 19.1082" stroke="white" stroke-width="4" stroke-linecap="round" stroke-linejoin="round"/>
<path d="M14 20.4166C14 20.4166 21.5833 15.4606 21.5833 9.73108C21.5833 5.64542 18.1883 2.33325 14 2.33325C9.81167 2.33325 6.41667 5.64542 6.41667 9.73108C6.41667 15.4606 14 20.4166 14 20.4166Z" stroke="white" stroke-width="4" stroke-linejoin="round"/>
<path d="M14 12.8333C14.7736 12.8333 15.5154 12.526 16.0624 11.9791C16.6094 11.4321 16.9167 10.6902 16.9167 9.91667C16.9167 9.14312 16.6094 8.40125 16.0624 7.85427C15.5154 7.30729 14.7736 7 14 7C13.2265 7 12.4846 7.30729 11.9376 7.85427C11.3906 8.40125 11.0833 9.14312 11.0833 9.91667C11.0833 10.6902 11.3906 11.4321 11.9376 11.9791C12.4846 12.526 13.2265 12.8333 14 12.8333Z" stroke="white" stroke-width="4" stroke-linejoin="round"/>
</g>
<defs>
<clipPath id="clip0_97_90">
<rect width="28" height="28" fill="white"/>
</clipPath>
</defs>
</svg>
