<svg width="22" height="21" viewBox="0 0 22 21" fill="none" xmlns="http://www.w3.org/2000/svg">
<path d="M17.6275 12.929L15.2992 12.6839C14.74 12.6247 14.19 12.8022 13.7958 13.1657L12.1092 14.7209C9.515 13.5038 7.38833 11.5513 6.06833 9.15085L7.76417 7.58717C8.15833 7.22372 8.35083 6.71658 8.28667 6.20099L8.02083 4.07101C7.91083 3.21733 7.13167 2.57495 6.19667 2.57495H4.61083C3.575 2.57495 2.71333 3.36947 2.7775 4.32458C3.26333 11.5429 9.52417 17.3073 17.3433 17.7553C18.3792 17.8145 19.2408 17.0199 19.2408 16.0648V14.6026C19.25 13.7489 18.5533 13.0305 17.6275 12.929Z" fill="white"/>
</svg>
