<svg width="29" height="29" viewBox="0 0 29 29" fill="none" xmlns="http://www.w3.org/2000/svg">
<g clip-path="url(#clip0_32_115)">
<path d="M0.613477 14.4681C0.612803 16.8103 1.2489 19.0973 2.45842 21.1131L0.497803 28.0005L7.82366 26.1524C9.84991 27.2136 12.1202 27.7697 14.4272 27.7699H14.4332C22.0492 27.7699 28.2487 21.8073 28.252 14.4786C28.2535 10.9273 26.8173 7.58785 24.208 5.07545C21.5992 2.56327 18.1295 1.17903 14.4327 1.17741C6.81584 1.17741 0.616733 7.13965 0.613589 14.4681" fill="url(#paint0_linear_32_115)"/>
<path d="M0.120166 14.4638C0.11938 16.8903 0.778271 19.2591 2.03092 21.347L0 28.4813L7.58854 26.567C9.67943 27.6638 12.0336 28.2421 14.429 28.2429H14.4352C22.3244 28.2429 28.7466 22.0659 28.75 14.4748C28.7513 10.7959 27.2635 7.33641 24.561 4.73401C21.8582 2.13193 18.2644 0.697886 14.4352 0.696373C6.54467 0.696373 0.123311 6.87255 0.120166 14.4638ZM4.63942 20.9874L4.35607 20.5547C3.16497 18.7325 2.53629 16.6268 2.53719 14.4646C2.53966 8.15501 7.87683 3.02162 14.4397 3.02162C17.6179 3.02292 20.6048 4.21494 22.8513 6.37768C25.0977 8.54064 26.3339 11.4159 26.3331 14.4739C26.3302 20.7835 20.9929 25.9176 14.4352 25.9176H14.4305C12.2952 25.9165 10.2011 25.3648 8.37479 24.3222L7.94017 24.0742L3.43697 25.2102L4.63942 20.9874Z" fill="url(#paint1_linear_32_115)"/>
<path d="M10.8574 8.70812C10.5895 8.13512 10.3075 8.12356 10.0527 8.11351C9.84401 8.10487 9.60547 8.10552 9.36716 8.10552C9.12863 8.10552 8.74106 8.19185 8.41347 8.53599C8.08554 8.88046 7.1615 9.71288 7.1615 11.4059C7.1615 13.099 8.44323 14.7353 8.62191 14.9651C8.80081 15.1945 11.0963 18.7801 14.7318 20.1594C17.7533 21.3057 18.3682 21.0778 19.0239 21.0203C19.6798 20.963 21.1402 20.1881 21.4381 19.3845C21.7363 18.581 21.7363 17.8923 21.6469 17.7484C21.5575 17.605 21.319 17.5189 20.9613 17.3469C20.6036 17.1749 18.845 16.3422 18.5172 16.2274C18.1893 16.1126 17.9508 16.0553 17.7123 16.3999C17.4738 16.744 16.7888 17.5189 16.58 17.7484C16.3715 17.9784 16.1627 18.0071 15.8051 17.8349C15.4472 17.6623 14.2953 17.2993 12.9287 16.1271C11.8654 15.2149 11.1475 14.0885 10.9389 13.7439C10.7302 13.3999 10.9165 13.2134 11.0959 13.0419C11.2566 12.8877 11.4537 12.6401 11.6327 12.4392C11.811 12.2382 11.8705 12.0949 11.9898 11.8654C12.1092 11.6356 12.0494 11.4347 11.9602 11.2625C11.8705 11.0904 11.1755 9.38851 10.8574 8.70812Z" fill="white"/>
</g>
<defs>
<linearGradient id="paint0_linear_32_115" x1="1388.21" y1="2683.48" x2="1388.21" y2="1.17741" gradientUnits="userSpaceOnUse">
<stop stop-color="#1FAF38"/>
<stop offset="1" stop-color="#60D669"/>
</linearGradient>
<linearGradient id="paint1_linear_32_115" x1="1437.5" y1="2779.19" x2="1437.5" y2="0.696373" gradientUnits="userSpaceOnUse">
<stop stop-color="#F9F9F9"/>
<stop offset="1" stop-color="white"/>
</linearGradient>
<clipPath id="clip0_32_115">
<rect width="28.75" height="27.8771" fill="white" transform="translate(0 0.696373)"/>
</clipPath>
</defs>
</svg>
