<svg width="55" height="56" viewBox="0 0 55 56" fill="none" xmlns="http://www.w3.org/2000/svg">
<path opacity="0.5" d="M50.4167 23.3334H4.58334V44.3334C4.58334 46.1899 5.30766 47.9704 6.59698 49.2832C7.88629 50.5959 9.63497 51.3334 11.4583 51.3334H43.5417C45.365 51.3334 47.1137 50.5959 48.403 49.2832C49.6923 47.9704 50.4167 46.1899 50.4167 44.3334V23.3334ZM16.0417 18.6667C15.4339 18.6667 14.851 18.4209 14.4212 17.9833C13.9914 17.5457 13.75 16.9523 13.75 16.3334V7.00008C13.75 6.38124 13.9914 5.78775 14.4212 5.35017C14.851 4.91258 15.4339 4.66675 16.0417 4.66675C16.6495 4.66675 17.2324 4.91258 17.6621 5.35017C18.0919 5.78775 18.3333 6.38124 18.3333 7.00008V16.3334C18.3333 16.9523 18.0919 17.5457 17.6621 17.9833C17.2324 18.4209 16.6495 18.6667 16.0417 18.6667ZM38.9583 18.6667C38.3505 18.6667 37.7677 18.4209 37.3379 17.9833C36.9081 17.5457 36.6667 16.9523 36.6667 16.3334V7.00008C36.6667 6.38124 36.9081 5.78775 37.3379 5.35017C37.7677 4.91258 38.3505 4.66675 38.9583 4.66675C39.5661 4.66675 40.149 4.91258 40.5788 5.35017C41.0086 5.78775 41.25 6.38124 41.25 7.00008V16.3334C41.25 16.9523 41.0086 17.5457 40.5788 17.9833C40.149 18.4209 39.5661 18.6667 38.9583 18.6667Z" fill="#FDCEF9"/>
<path d="M43.5417 9.33325H41.25V16.3333C41.25 16.9521 41.0086 17.5456 40.5788 17.9832C40.149 18.4208 39.5661 18.6666 38.9583 18.6666C38.3505 18.6666 37.7677 18.4208 37.3379 17.9832C36.9081 17.5456 36.6667 16.9521 36.6667 16.3333V9.33325H18.3333V16.3333C18.3333 16.9521 18.0919 17.5456 17.6621 17.9832C17.2324 18.4208 16.6495 18.6666 16.0417 18.6666C15.4339 18.6666 14.851 18.4208 14.4212 17.9832C13.9914 17.5456 13.75 16.9521 13.75 16.3333V9.33325H11.4583C9.63497 9.33325 7.88629 10.0708 6.59698 11.3835C5.30766 12.6963 4.58334 14.4767 4.58334 16.3333V23.3333H50.4167V16.3333C50.4167 14.4767 49.6923 12.6963 48.403 11.3835C47.1137 10.0708 45.365 9.33325 43.5417 9.33325Z" fill="#FDCEF9"/>
</svg>
