<svg width="306" height="30" viewBox="0 0 306 30" fill="none" xmlns="http://www.w3.org/2000/svg">
<path d="M0.585786 13.5858C-0.195262 14.3668 -0.195262 15.6332 0.585786 16.4142L13.3137 29.1421C14.0948 29.9232 15.3611 29.9232 16.1421 29.1421C16.9232 28.3611 16.9232 27.0948 16.1421 26.3137L4.82843 15L16.1421 3.68629C16.9232 2.90524 16.9232 1.63891 16.1421 0.857864C15.3611 0.0768158 14.0948 0.0768158 13.3137 0.857864L0.585786 13.5858ZM78 13L2 13V17L78 17V13Z" fill="#BC49B0"/>
<path d="M305.414 16.5722C306.195 15.7911 306.195 14.5248 305.414 13.7437L292.686 1.01582C291.905 0.234775 290.639 0.234775 289.857 1.01582C289.076 1.79687 289.076 3.0632 289.857 3.84425L301.171 15.158L289.857 26.4717C289.076 27.2527 289.076 28.519 289.857 29.3001C290.639 30.0811 291.905 30.0811 292.686 29.3001L305.414 16.5722ZM228 17.158H304V13.158H228V17.158Z" fill="#BC49B0"/>
</svg>
